solid earth_observation_spacecraft
 facet normal -1.0000000e+00 0.0000000e+00 0.0000000e+00
  outer loop
   vertex -3.5000000e-01 -3.5000000e-01 -4.5000000e-01
   vertex -3.5000000e-01 -3.5000000e-01 4.5000000e-01
   vertex -3.5000000e-01 3.5000000e-01 4.5000000e-01
  endloop
 endfacet
 facet normal -1.0000000e+00 0.0000000e+00 0.0000000e+00
  outer loop
   vertex -3.5000000e-01 -3.5000000e-01 -4.5000000e-01
   vertex -3.5000000e-01 3.5000000e-01 4.5000000e-01
   vertex -3.5000000e-01 3.5000000e-01 -4.5000000e-01
  endloop
 endfacet
 facet normal -1.0000000e+00 0.0000000e+00 0.0000000e+00
  outer loop
   vertex 3.5000000e-01 -3.5000000e-01 -4.5000000e-01
   vertex 3.5000000e-01 -3.5000000e-01 4.5000000e-01
   vertex 3.5000000e-01 3.5000000e-01 4.5000000e-01
  endloop
 endfacet
 facet normal -1.0000000e+00 0.0000000e+00 0.0000000e+00
  outer loop
   vertex 3.5000000e-01 -3.5000000e-01 -4.5000000e-01
   vertex 3.5000000e-01 3.5000000e-01 4.5000000e-01
   vertex 3.5000000e-01 3.5000000e-01 -4.5000000e-01
  endloop
 endfacet
 facet normal 0.0000000e+00 1.0000000e+00 0.0000000e+00
  outer loop
   vertex -3.5000000e-01 -3.5000000e-01 -4.5000000e-01
   vertex -3.5000000e-01 -3.5000000e-01 4.5000000e-01
   vertex 3.5000000e-01 -3.5000000e-01 4.5000000e-01
  endloop
 endfacet
 facet normal 0.0000000e+00 1.0000000e+00 0.0000000e+00
  outer loop
   vertex -3.5000000e-01 -3.5000000e-01 -4.5000000e-01
   vertex 3.5000000e-01 -3.5000000e-01 4.5000000e-01
   vertex 3.5000000e-01 -3.5000000e-01 -4.5000000e-01
  endloop
 endfacet
 facet normal 0.0000000e+00 1.0000000e+00 0.0000000e+00
  outer loop
   vertex -3.5000000e-01 3.5000000e-01 -4.5000000e-01
   vertex -3.5000000e-01 3.5000000e-01 4.5000000e-01
   vertex 3.5000000e-01 3.5000000e-01 4.5000000e-01
  endloop
 endfacet
 facet normal 0.0000000e+00 1.0000000e+00 0.0000000e+00
  outer loop
   vertex -3.5000000e-01 3.5000000e-01 -4.5000000e-01
   vertex 3.5000000e-01 3.5000000e-01 4.5000000e-01
   vertex 3.5000000e-01 3.5000000e-01 -4.5000000e-01
  endloop
 endfacet
 facet normal 0.0000000e+00 0.0000000e+00 -1.0000000e+00
  outer loop
   vertex -3.5000000e-01 -3.5000000e-01 -4.5000000e-01
   vertex -3.5000000e-01 3.5000000e-01 -4.5000000e-01
   vertex 3.5000000e-01 3.5000000e-01 -4.5000000e-01
  endloop
 endfacet
 facet normal 0.0000000e+00 0.0000000e+00 -1.0000000e+00
  outer loop
   vertex -3.5000000e-01 -3.5000000e-01 -4.5000000e-01
   vertex 3.5000000e-01 3.5000000e-01 -4.5000000e-01
   vertex 3.5000000e-01 -3.5000000e-01 -4.5000000e-01
  endloop
 endfacet
 facet normal 0.0000000e+00 0.0000000e+00 -1.0000000e+00
  outer loop
   vertex -3.5000000e-01 -3.5000000e-01 4.5000000e-01
   vertex -3.5000000e-01 3.5000000e-01 4.5000000e-01
   vertex 3.5000000e-01 3.5000000e-01 4.5000000e-01
  endloop
 endfacet
 facet normal 0.0000000e+00 0.0000000e+00 -1.0000000e+00
  outer loop
   vertex -3.5000000e-01 -3.5000000e-01 4.5000000e-01
   vertex 3.5000000e-01 3.5000000e-01 4.5000000e-01
   vertex 3.5000000e-01 -3.5000000e-01 4.5000000e-01
  endloop
 endfacet
 facet normal -1.0000000e+00 0.0000000e+00 0.0000000e+00
  outer loop
   vertex -1.1000000e+00 -2.5000000e-01 9.2500000e-02
   vertex -1.1000000e+00 -2.5000000e-01 1.0750000e-01
   vertex -1.1000000e+00 2.5000000e-01 1.0750000e-01
  endloop
 endfacet
 facet normal -1.0000000e+00 0.0000000e+00 0.0000000e+00
  outer loop
   vertex -1.1000000e+00 -2.5000000e-01 9.2500000e-02
   vertex -1.1000000e+00 2.5000000e-01 1.0750000e-01
   vertex -1.1000000e+00 2.5000000e-01 9.2500000e-02
  endloop
 endfacet
 facet normal -1.0000000e+00 0.0000000e+00 0.0000000e+00
  outer loop
   vertex -3.5000000e-01 -2.5000000e-01 9.2500000e-02
   vertex -3.5000000e-01 -2.5000000e-01 1.0750000e-01
   vertex -3.5000000e-01 2.5000000e-01 1.0750000e-01
  endloop
 endfacet
 facet normal -1.0000000e+00 0.0000000e+00 0.0000000e+00
  outer loop
   vertex -3.5000000e-01 -2.5000000e-01 9.2500000e-02
   vertex -3.5000000e-01 2.5000000e-01 1.0750000e-01
   vertex -3.5000000e-01 2.5000000e-01 9.2500000e-02
  endloop
 endfacet
 facet normal 0.0000000e+00 1.0000000e+00 0.0000000e+00
  outer loop
   vertex -1.1000000e+00 -2.5000000e-01 9.2500000e-02
   vertex -1.1000000e+00 -2.5000000e-01 1.0750000e-01
   vertex -3.5000000e-01 -2.5000000e-01 1.0750000e-01
  endloop
 endfacet
 facet normal 0.0000000e+00 1.0000000e+00 0.0000000e+00
  outer loop
   vertex -1.1000000e+00 -2.5000000e-01 9.2500000e-02
   vertex -3.5000000e-01 -2.5000000e-01 1.0750000e-01
   vertex -3.5000000e-01 -2.5000000e-01 9.2500000e-02
  endloop
 endfacet
 facet normal 0.0000000e+00 1.0000000e+00 0.0000000e+00
  outer loop
   vertex -1.1000000e+00 2.5000000e-01 9.2500000e-02
   vertex -1.1000000e+00 2.5000000e-01 1.0750000e-01
   vertex -3.5000000e-01 2.5000000e-01 1.0750000e-01
  endloop
 endfacet
 facet normal 0.0000000e+00 1.0000000e+00 0.0000000e+00
  outer loop
   vertex -1.1000000e+00 2.5000000e-01 9.2500000e-02
   vertex -3.5000000e-01 2.5000000e-01 1.0750000e-01
   vertex -3.5000000e-01 2.5000000e-01 9.2500000e-02
  endloop
 endfacet
 facet normal 0.0000000e+00 0.0000000e+00 -1.0000000e+00
  outer loop
   vertex -1.1000000e+00 -2.5000000e-01 9.2500000e-02
   vertex -1.1000000e+00 2.5000000e-01 9.2500000e-02
   vertex -3.5000000e-01 2.5000000e-01 9.2500000e-02
  endloop
 endfacet
 facet normal 0.0000000e+00 0.0000000e+00 -1.0000000e+00
  outer loop
   vertex -1.1000000e+00 -2.5000000e-01 9.2500000e-02
   vertex -3.5000000e-01 2.5000000e-01 9.2500000e-02
   vertex -3.5000000e-01 -2.5000000e-01 9.2500000e-02
  endloop
 endfacet
 facet normal 0.0000000e+00 0.0000000e+00 -1.0000000e+00
  outer loop
   vertex -1.1000000e+00 -2.5000000e-01 1.0750000e-01
   vertex -1.1000000e+00 2.5000000e-01 1.0750000e-01
   vertex -3.5000000e-01 2.5000000e-01 1.0750000e-01
  endloop
 endfacet
 facet normal 0.0000000e+00 0.0000000e+00 -1.0000000e+00
  outer loop
   vertex -1.1000000e+00 -2.5000000e-01 1.0750000e-01
   vertex -3.5000000e-01 2.5000000e-01 1.0750000e-01
   vertex -3.5000000e-01 -2.5000000e-01 1.0750000e-01
  endloop
 endfacet
 facet normal -1.0000000e+00 0.0000000e+00 0.0000000e+00
  outer loop
   vertex 3.5000000e-01 -2.5000000e-01 9.2500000e-02
   vertex 3.5000000e-01 -2.5000000e-01 1.0750000e-01
   vertex 3.5000000e-01 2.5000000e-01 1.0750000e-01
  endloop
 endfacet
 facet normal -1.0000000e+00 0.0000000e+00 0.0000000e+00
  outer loop
   vertex 3.5000000e-01 -2.5000000e-01 9.2500000e-02
   vertex 3.5000000e-01 2.5000000e-01 1.0750000e-01
   vertex 3.5000000e-01 2.5000000e-01 9.2500000e-02
  endloop
 endfacet
 facet normal -1.0000000e+00 0.0000000e+00 0.0000000e+00
  outer loop
   vertex 1.1000000e+00 -2.5000000e-01 9.2500000e-02
   vertex 1.1000000e+00 -2.5000000e-01 1.0750000e-01
   vertex 1.1000000e+00 2.5000000e-01 1.0750000e-01
  endloop
 endfacet
 facet normal -1.0000000e+00 0.0000000e+00 0.0000000e+00
  outer loop
   vertex 1.1000000e+00 -2.5000000e-01 9.2500000e-02
   vertex 1.1000000e+00 2.5000000e-01 1.0750000e-01
   vertex 1.1000000e+00 2.5000000e-01 9.2500000e-02
  endloop
 endfacet
 facet normal 0.0000000e+00 1.0000000e+00 0.0000000e+00
  outer loop
   vertex 3.5000000e-01 -2.5000000e-01 9.2500000e-02
   vertex 3.5000000e-01 -2.5000000e-01 1.0750000e-01
   vertex 1.1000000e+00 -2.5000000e-01 1.0750000e-01
  endloop
 endfacet
 facet normal 0.0000000e+00 1.0000000e+00 0.0000000e+00
  outer loop
   vertex 3.5000000e-01 -2.5000000e-01 9.2500000e-02
   vertex 1.1000000e+00 -2.5000000e-01 1.0750000e-01
   vertex 1.1000000e+00 -2.5000000e-01 9.2500000e-02
  endloop
 endfacet
 facet normal 0.0000000e+00 1.0000000e+00 0.0000000e+00
  outer loop
   vertex 3.5000000e-01 2.5000000e-01 9.2500000e-02
   vertex 3.5000000e-01 2.5000000e-01 1.0750000e-01
   vertex 1.1000000e+00 2.5000000e-01 1.0750000e-01
  endloop
 endfacet
 facet normal 0.0000000e+00 1.0000000e+00 0.0000000e+00
  outer loop
   vertex 3.5000000e-01 2.5000000e-01 9.2500000e-02
   vertex 1.1000000e+00 2.5000000e-01 1.0750000e-01
   vertex 1.1000000e+00 2.5000000e-01 9.2500000e-02
  endloop
 endfacet
 facet normal 0.0000000e+00 0.0000000e+00 -1.0000000e+00
  outer loop
   vertex 3.5000000e-01 -2.5000000e-01 9.2500000e-02
   vertex 3.5000000e-01 2.5000000e-01 9.2500000e-02
   vertex 1.1000000e+00 2.5000000e-01 9.2500000e-02
  endloop
 endfacet
 facet normal 0.0000000e+00 0.0000000e+00 -1.0000000e+00
  outer loop
   vertex 3.5000000e-01 -2.5000000e-01 9.2500000e-02
   vertex 1.1000000e+00 2.5000000e-01 9.2500000e-02
   vertex 1.1000000e+00 -2.5000000e-01 9.2500000e-02
  endloop
 endfacet
 facet normal 0.0000000e+00 0.0000000e+00 -1.0000000e+00
  outer loop
   vertex 3.5000000e-01 -2.5000000e-01 1.0750000e-01
   vertex 3.5000000e-01 2.5000000e-01 1.0750000e-01
   vertex 1.1000000e+00 2.5000000e-01 1.0750000e-01
  endloop
 endfacet
 facet normal 0.0000000e+00 0.0000000e+00 -1.0000000e+00
  outer loop
   vertex 3.5000000e-01 -2.5000000e-01 1.0750000e-01
   vertex 1.1000000e+00 2.5000000e-01 1.0750000e-01
   vertex 1.1000000e+00 -2.5000000e-01 1.0750000e-01
  endloop
 endfacet
 facet normal 9.9518473e-01 9.8017140e-02 0.0000000e+00
  outer loop
   vertex 1.0000000e-01 0.0000000e+00 -5.7000000e-01
   vertex 9.8078528e-02 1.9509032e-02 -5.7000000e-01
   vertex 9.8078528e-02 1.9509032e-02 -4.5000000e-01
  endloop
 endfacet
 facet normal 9.9518473e-01 9.8017140e-02 -0.0000000e+00
  outer loop
   vertex 1.0000000e-01 0.0000000e+00 -5.7000000e-01
   vertex 9.8078528e-02 1.9509032e-02 -4.5000000e-01
   vertex 1.0000000e-01 0.0000000e+00 -4.5000000e-01
  endloop
 endfacet
 facet normal 0.0000000e+00 0.0000000e+00 -1.0000000e+00
  outer loop
   vertex 0.0000000e+00 0.0000000e+00 -5.7000000e-01
   vertex 9.8078528e-02 1.9509032e-02 -5.7000000e-01
   vertex 1.0000000e-01 0.0000000e+00 -5.7000000e-01
  endloop
 endfacet
 facet normal 0.0000000e+00 0.0000000e+00 1.0000000e+00
  outer loop
   vertex 0.0000000e+00 0.0000000e+00 -4.5000000e-01
   vertex 1.0000000e-01 0.0000000e+00 -4.5000000e-01
   vertex 9.8078528e-02 1.9509032e-02 -4.5000000e-01
  endloop
 endfacet
 facet normal 9.5694034e-01 2.9028468e-01 0.0000000e+00
  outer loop
   vertex 9.8078528e-02 1.9509032e-02 -5.7000000e-01
   vertex 9.2387953e-02 3.8268343e-02 -5.7000000e-01
   vertex 9.2387953e-02 3.8268343e-02 -4.5000000e-01
  endloop
 endfacet
 facet normal 9.5694034e-01 2.9028468e-01 -0.0000000e+00
  outer loop
   vertex 9.8078528e-02 1.9509032e-02 -5.7000000e-01
   vertex 9.2387953e-02 3.8268343e-02 -4.5000000e-01
   vertex 9.8078528e-02 1.9509032e-02 -4.5000000e-01
  endloop
 endfacet
 facet normal 0.0000000e+00 0.0000000e+00 -1.0000000e+00
  outer loop
   vertex 0.0000000e+00 0.0000000e+00 -5.7000000e-01
   vertex 9.2387953e-02 3.8268343e-02 -5.7000000e-01
   vertex 9.8078528e-02 1.9509032e-02 -5.7000000e-01
  endloop
 endfacet
 facet normal 0.0000000e+00 0.0000000e+00 1.0000000e+00
  outer loop
   vertex 0.0000000e+00 0.0000000e+00 -4.5000000e-01
   vertex 9.8078528e-02 1.9509032e-02 -4.5000000e-01
   vertex 9.2387953e-02 3.8268343e-02 -4.5000000e-01
  endloop
 endfacet
 facet normal 8.8192126e-01 4.7139674e-01 0.0000000e+00
  outer loop
   vertex 9.2387953e-02 3.8268343e-02 -5.7000000e-01
   vertex 8.3146961e-02 5.5557023e-02 -5.7000000e-01
   vertex 8.3146961e-02 5.5557023e-02 -4.5000000e-01
  endloop
 endfacet
 facet normal 8.8192126e-01 4.7139674e-01 -0.0000000e+00
  outer loop
   vertex 9.2387953e-02 3.8268343e-02 -5.7000000e-01
   vertex 8.3146961e-02 5.5557023e-02 -4.5000000e-01
   vertex 9.2387953e-02 3.8268343e-02 -4.5000000e-01
  endloop
 endfacet
 facet normal 0.0000000e+00 0.0000000e+00 -1.0000000e+00
  outer loop
   vertex 0.0000000e+00 0.0000000e+00 -5.7000000e-01
   vertex 8.3146961e-02 5.5557023e-02 -5.7000000e-01
   vertex 9.2387953e-02 3.8268343e-02 -5.7000000e-01
  endloop
 endfacet
 facet normal 0.0000000e+00 0.0000000e+00 1.0000000e+00
  outer loop
   vertex 0.0000000e+00 0.0000000e+00 -4.5000000e-01
   vertex 9.2387953e-02 3.8268343e-02 -4.5000000e-01
   vertex 8.3146961e-02 5.5557023e-02 -4.5000000e-01
  endloop
 endfacet
 facet normal 7.7301045e-01 6.3439328e-01 0.0000000e+00
  outer loop
   vertex 8.3146961e-02 5.5557023e-02 -5.7000000e-01
   vertex 7.0710678e-02 7.0710678e-02 -5.7000000e-01
   vertex 7.0710678e-02 7.0710678e-02 -4.5000000e-01
  endloop
 endfacet
 facet normal 7.7301045e-01 6.3439328e-01 -0.0000000e+00
  outer loop
   vertex 8.3146961e-02 5.5557023e-02 -5.7000000e-01
   vertex 7.0710678e-02 7.0710678e-02 -4.5000000e-01
   vertex 8.3146961e-02 5.5557023e-02 -4.5000000e-01
  endloop
 endfacet
 facet normal 0.0000000e+00 0.0000000e+00 -1.0000000e+00
  outer loop
   vertex 0.0000000e+00 0.0000000e+00 -5.7000000e-01
   vertex 7.0710678e-02 7.0710678e-02 -5.7000000e-01
   vertex 8.3146961e-02 5.5557023e-02 -5.7000000e-01
  endloop
 endfacet
 facet normal 0.0000000e+00 0.0000000e+00 1.0000000e+00
  outer loop
   vertex 0.0000000e+00 0.0000000e+00 -4.5000000e-01
   vertex 8.3146961e-02 5.5557023e-02 -4.5000000e-01
   vertex 7.0710678e-02 7.0710678e-02 -4.5000000e-01
  endloop
 endfacet
 facet normal 6.3439328e-01 7.7301045e-01 0.0000000e+00
  outer loop
   vertex 7.0710678e-02 7.0710678e-02 -5.7000000e-01
   vertex 5.5557023e-02 8.3146961e-02 -5.7000000e-01
   vertex 5.5557023e-02 8.3146961e-02 -4.5000000e-01
  endloop
 endfacet
 facet normal 6.3439328e-01 7.7301045e-01 -0.0000000e+00
  outer loop
   vertex 7.0710678e-02 7.0710678e-02 -5.7000000e-01
   vertex 5.5557023e-02 8.3146961e-02 -4.5000000e-01
   vertex 7.0710678e-02 7.0710678e-02 -4.5000000e-01
  endloop
 endfacet
 facet normal 0.0000000e+00 0.0000000e+00 -1.0000000e+00
  outer loop
   vertex 0.0000000e+00 0.0000000e+00 -5.7000000e-01
   vertex 5.5557023e-02 8.3146961e-02 -5.7000000e-01
   vertex 7.0710678e-02 7.0710678e-02 -5.7000000e-01
  endloop
 endfacet
 facet normal 0.0000000e+00 0.0000000e+00 1.0000000e+00
  outer loop
   vertex 0.0000000e+00 0.0000000e+00 -4.5000000e-01
   vertex 7.0710678e-02 7.0710678e-02 -4.5000000e-01
   vertex 5.5557023e-02 8.3146961e-02 -4.5000000e-01
  endloop
 endfacet
 facet normal 4.7139674e-01 8.8192126e-01 0.0000000e+00
  outer loop
   vertex 5.5557023e-02 8.3146961e-02 -5.7000000e-01
   vertex 3.8268343e-02 9.2387953e-02 -5.7000000e-01
   vertex 3.8268343e-02 9.2387953e-02 -4.5000000e-01
  endloop
 endfacet
 facet normal 4.7139674e-01 8.8192126e-01 -0.0000000e+00
  outer loop
   vertex 5.5557023e-02 8.3146961e-02 -5.7000000e-01
   vertex 3.8268343e-02 9.2387953e-02 -4.5000000e-01
   vertex 5.5557023e-02 8.3146961e-02 -4.5000000e-01
  endloop
 endfacet
 facet normal 0.0000000e+00 0.0000000e+00 -1.0000000e+00
  outer loop
   vertex 0.0000000e+00 0.0000000e+00 -5.7000000e-01
   vertex 3.8268343e-02 9.2387953e-02 -5.7000000e-01
   vertex 5.5557023e-02 8.3146961e-02 -5.7000000e-01
  endloop
 endfacet
 facet normal 0.0000000e+00 0.0000000e+00 1.0000000e+00
  outer loop
   vertex 0.0000000e+00 0.0000000e+00 -4.5000000e-01
   vertex 5.5557023e-02 8.3146961e-02 -4.5000000e-01
   vertex 3.8268343e-02 9.2387953e-02 -4.5000000e-01
  endloop
 endfacet
 facet normal 2.9028468e-01 9.5694034e-01 0.0000000e+00
  outer loop
   vertex 3.8268343e-02 9.2387953e-02 -5.7000000e-01
   vertex 1.9509032e-02 9.8078528e-02 -5.7000000e-01
   vertex 1.9509032e-02 9.8078528e-02 -4.5000000e-01
  endloop
 endfacet
 facet normal 2.9028468e-01 9.5694034e-01 -0.0000000e+00
  outer loop
   vertex 3.8268343e-02 9.2387953e-02 -5.7000000e-01
   vertex 1.9509032e-02 9.8078528e-02 -4.5000000e-01
   vertex 3.8268343e-02 9.2387953e-02 -4.5000000e-01
  endloop
 endfacet
 facet normal 0.0000000e+00 0.0000000e+00 -1.0000000e+00
  outer loop
   vertex 0.0000000e+00 0.0000000e+00 -5.7000000e-01
   vertex 1.9509032e-02 9.8078528e-02 -5.7000000e-01
   vertex 3.8268343e-02 9.2387953e-02 -5.7000000e-01
  endloop
 endfacet
 facet normal 0.0000000e+00 0.0000000e+00 1.0000000e+00
  outer loop
   vertex 0.0000000e+00 0.0000000e+00 -4.5000000e-01
   vertex 3.8268343e-02 9.2387953e-02 -4.5000000e-01
   vertex 1.9509032e-02 9.8078528e-02 -4.5000000e-01
  endloop
 endfacet
 facet normal 9.8017140e-02 9.9518473e-01 0.0000000e+00
  outer loop
   vertex 1.9509032e-02 9.8078528e-02 -5.7000000e-01
   vertex 6.1232340e-18 1.0000000e-01 -5.7000000e-01
   vertex 6.1232340e-18 1.0000000e-01 -4.5000000e-01
  endloop
 endfacet
 facet normal 9.8017140e-02 9.9518473e-01 -0.0000000e+00
  outer loop
   vertex 1.9509032e-02 9.8078528e-02 -5.7000000e-01
   vertex 6.1232340e-18 1.0000000e-01 -4.5000000e-01
   vertex 1.9509032e-02 9.8078528e-02 -4.5000000e-01
  endloop
 endfacet
 facet normal 0.0000000e+00 0.0000000e+00 -1.0000000e+00
  outer loop
   vertex 0.0000000e+00 0.0000000e+00 -5.7000000e-01
   vertex 6.1232340e-18 1.0000000e-01 -5.7000000e-01
   vertex 1.9509032e-02 9.8078528e-02 -5.7000000e-01
  endloop
 endfacet
 facet normal 0.0000000e+00 0.0000000e+00 1.0000000e+00
  outer loop
   vertex 0.0000000e+00 0.0000000e+00 -4.5000000e-01
   vertex 1.9509032e-02 9.8078528e-02 -4.5000000e-01
   vertex 6.1232340e-18 1.0000000e-01 -4.5000000e-01
  endloop
 endfacet
 facet normal -9.8017140e-02 9.9518473e-01 0.0000000e+00
  outer loop
   vertex 6.1232340e-18 1.0000000e-01 -5.7000000e-01
   vertex -1.9509032e-02 9.8078528e-02 -5.7000000e-01
   vertex -1.9509032e-02 9.8078528e-02 -4.5000000e-01
  endloop
 endfacet
 facet normal -9.8017140e-02 9.9518473e-01 0.0000000e+00
  outer loop
   vertex 6.1232340e-18 1.0000000e-01 -5.7000000e-01
   vertex -1.9509032e-02 9.8078528e-02 -4.5000000e-01
   vertex 6.1232340e-18 1.0000000e-01 -4.5000000e-01
  endloop
 endfacet
 facet normal 0.0000000e+00 0.0000000e+00 -1.0000000e+00
  outer loop
   vertex 0.0000000e+00 0.0000000e+00 -5.7000000e-01
   vertex -1.9509032e-02 9.8078528e-02 -5.7000000e-01
   vertex 6.1232340e-18 1.0000000e-01 -5.7000000e-01
  endloop
 endfacet
 facet normal 0.0000000e+00 -0.0000000e+00 1.0000000e+00
  outer loop
   vertex 0.0000000e+00 0.0000000e+00 -4.5000000e-01
   vertex 6.1232340e-18 1.0000000e-01 -4.5000000e-01
   vertex -1.9509032e-02 9.8078528e-02 -4.5000000e-01
  endloop
 endfacet
 facet normal -2.9028468e-01 9.5694034e-01 0.0000000e+00
  outer loop
   vertex -1.9509032e-02 9.8078528e-02 -5.7000000e-01
   vertex -3.8268343e-02 9.2387953e-02 -5.7000000e-01
   vertex -3.8268343e-02 9.2387953e-02 -4.5000000e-01
  endloop
 endfacet
 facet normal -2.9028468e-01 9.5694034e-01 0.0000000e+00
  outer loop
   vertex -1.9509032e-02 9.8078528e-02 -5.7000000e-01
   vertex -3.8268343e-02 9.2387953e-02 -4.5000000e-01
   vertex -1.9509032e-02 9.8078528e-02 -4.5000000e-01
  endloop
 endfacet
 facet normal 0.0000000e+00 0.0000000e+00 -1.0000000e+00
  outer loop
   vertex 0.0000000e+00 0.0000000e+00 -5.7000000e-01
   vertex -3.8268343e-02 9.2387953e-02 -5.7000000e-01
   vertex -1.9509032e-02 9.8078528e-02 -5.7000000e-01
  endloop
 endfacet
 facet normal 0.0000000e+00 0.0000000e+00 1.0000000e+00
  outer loop
   vertex 0.0000000e+00 0.0000000e+00 -4.5000000e-01
   vertex -1.9509032e-02 9.8078528e-02 -4.5000000e-01
   vertex -3.8268343e-02 9.2387953e-02 -4.5000000e-01
  endloop
 endfacet
 facet normal -4.7139674e-01 8.8192126e-01 0.0000000e+00
  outer loop
   vertex -3.8268343e-02 9.2387953e-02 -5.7000000e-01
   vertex -5.5557023e-02 8.3146961e-02 -5.7000000e-01
   vertex -5.5557023e-02 8.3146961e-02 -4.5000000e-01
  endloop
 endfacet
 facet normal -4.7139674e-01 8.8192126e-01 0.0000000e+00
  outer loop
   vertex -3.8268343e-02 9.2387953e-02 -5.7000000e-01
   vertex -5.5557023e-02 8.3146961e-02 -4.5000000e-01
   vertex -3.8268343e-02 9.2387953e-02 -4.5000000e-01
  endloop
 endfacet
 facet normal 0.0000000e+00 0.0000000e+00 -1.0000000e+00
  outer loop
   vertex 0.0000000e+00 0.0000000e+00 -5.7000000e-01
   vertex -5.5557023e-02 8.3146961e-02 -5.7000000e-01
   vertex -3.8268343e-02 9.2387953e-02 -5.7000000e-01
  endloop
 endfacet
 facet normal 0.0000000e+00 0.0000000e+00 1.0000000e+00
  outer loop
   vertex 0.0000000e+00 0.0000000e+00 -4.5000000e-01
   vertex -3.8268343e-02 9.2387953e-02 -4.5000000e-01
   vertex -5.5557023e-02 8.3146961e-02 -4.5000000e-01
  endloop
 endfacet
 facet normal -6.3439328e-01 7.7301045e-01 0.0000000e+00
  outer loop
   vertex -5.5557023e-02 8.3146961e-02 -5.7000000e-01
   vertex -7.0710678e-02 7.0710678e-02 -5.7000000e-01
   vertex -7.0710678e-02 7.0710678e-02 -4.5000000e-01
  endloop
 endfacet
 facet normal -6.3439328e-01 7.7301045e-01 0.0000000e+00
  outer loop
   vertex -5.5557023e-02 8.3146961e-02 -5.7000000e-01
   vertex -7.0710678e-02 7.0710678e-02 -4.5000000e-01
   vertex -5.5557023e-02 8.3146961e-02 -4.5000000e-01
  endloop
 endfacet
 facet normal 0.0000000e+00 0.0000000e+00 -1.0000000e+00
  outer loop
   vertex 0.0000000e+00 0.0000000e+00 -5.7000000e-01
   vertex -7.0710678e-02 7.0710678e-02 -5.7000000e-01
   vertex -5.5557023e-02 8.3146961e-02 -5.7000000e-01
  endloop
 endfacet
 facet normal 0.0000000e+00 0.0000000e+00 1.0000000e+00
  outer loop
   vertex 0.0000000e+00 0.0000000e+00 -4.5000000e-01
   vertex -5.5557023e-02 8.3146961e-02 -4.5000000e-01
   vertex -7.0710678e-02 7.0710678e-02 -4.5000000e-01
  endloop
 endfacet
 facet normal -7.7301045e-01 6.3439328e-01 0.0000000e+00
  outer loop
   vertex -7.0710678e-02 7.0710678e-02 -5.7000000e-01
   vertex -8.3146961e-02 5.5557023e-02 -5.7000000e-01
   vertex -8.3146961e-02 5.5557023e-02 -4.5000000e-01
  endloop
 endfacet
 facet normal -7.7301045e-01 6.3439328e-01 0.0000000e+00
  outer loop
   vertex -7.0710678e-02 7.0710678e-02 -5.7000000e-01
   vertex -8.3146961e-02 5.5557023e-02 -4.5000000e-01
   vertex -7.0710678e-02 7.0710678e-02 -4.5000000e-01
  endloop
 endfacet
 facet normal 0.0000000e+00 0.0000000e+00 -1.0000000e+00
  outer loop
   vertex 0.0000000e+00 0.0000000e+00 -5.7000000e-01
   vertex -8.3146961e-02 5.5557023e-02 -5.7000000e-01
   vertex -7.0710678e-02 7.0710678e-02 -5.7000000e-01
  endloop
 endfacet
 facet normal 0.0000000e+00 0.0000000e+00 1.0000000e+00
  outer loop
   vertex 0.0000000e+00 0.0000000e+00 -4.5000000e-01
   vertex -7.0710678e-02 7.0710678e-02 -4.5000000e-01
   vertex -8.3146961e-02 5.5557023e-02 -4.5000000e-01
  endloop
 endfacet
 facet normal -8.8192126e-01 4.7139674e-01 0.0000000e+00
  outer loop
   vertex -8.3146961e-02 5.5557023e-02 -5.7000000e-01
   vertex -9.2387953e-02 3.8268343e-02 -5.7000000e-01
   vertex -9.2387953e-02 3.8268343e-02 -4.5000000e-01
  endloop
 endfacet
 facet normal -8.8192126e-01 4.7139674e-01 0.0000000e+00
  outer loop
   vertex -8.3146961e-02 5.5557023e-02 -5.7000000e-01
   vertex -9.2387953e-02 3.8268343e-02 -4.5000000e-01
   vertex -8.3146961e-02 5.5557023e-02 -4.5000000e-01
  endloop
 endfacet
 facet normal 0.0000000e+00 0.0000000e+00 -1.0000000e+00
  outer loop
   vertex 0.0000000e+00 0.0000000e+00 -5.7000000e-01
   vertex -9.2387953e-02 3.8268343e-02 -5.7000000e-01
   vertex -8.3146961e-02 5.5557023e-02 -5.7000000e-01
  endloop
 endfacet
 facet normal 0.0000000e+00 0.0000000e+00 1.0000000e+00
  outer loop
   vertex 0.0000000e+00 0.0000000e+00 -4.5000000e-01
   vertex -8.3146961e-02 5.5557023e-02 -4.5000000e-01
   vertex -9.2387953e-02 3.8268343e-02 -4.5000000e-01
  endloop
 endfacet
 facet normal -9.5694034e-01 2.9028468e-01 0.0000000e+00
  outer loop
   vertex -9.2387953e-02 3.8268343e-02 -5.7000000e-01
   vertex -9.8078528e-02 1.9509032e-02 -5.7000000e-01
   vertex -9.8078528e-02 1.9509032e-02 -4.5000000e-01
  endloop
 endfacet
 facet normal -9.5694034e-01 2.9028468e-01 0.0000000e+00
  outer loop
   vertex -9.2387953e-02 3.8268343e-02 -5.7000000e-01
   vertex -9.8078528e-02 1.9509032e-02 -4.5000000e-01
   vertex -9.2387953e-02 3.8268343e-02 -4.5000000e-01
  endloop
 endfacet
 facet normal 0.0000000e+00 0.0000000e+00 -1.0000000e+00
  outer loop
   vertex 0.0000000e+00 0.0000000e+00 -5.7000000e-01
   vertex -9.8078528e-02 1.9509032e-02 -5.7000000e-01
   vertex -9.2387953e-02 3.8268343e-02 -5.7000000e-01
  endloop
 endfacet
 facet normal 0.0000000e+00 0.0000000e+00 1.0000000e+00
  outer loop
   vertex 0.0000000e+00 0.0000000e+00 -4.5000000e-01
   vertex -9.2387953e-02 3.8268343e-02 -4.5000000e-01
   vertex -9.8078528e-02 1.9509032e-02 -4.5000000e-01
  endloop
 endfacet
 facet normal -9.9518473e-01 9.8017140e-02 0.0000000e+00
  outer loop
   vertex -9.8078528e-02 1.9509032e-02 -5.7000000e-01
   vertex -1.0000000e-01 1.2246468e-17 -5.7000000e-01
   vertex -1.0000000e-01 1.2246468e-17 -4.5000000e-01
  endloop
 endfacet
 facet normal -9.9518473e-01 9.8017140e-02 0.0000000e+00
  outer loop
   vertex -9.8078528e-02 1.9509032e-02 -5.7000000e-01
   vertex -1.0000000e-01 1.2246468e-17 -4.5000000e-01
   vertex -9.8078528e-02 1.9509032e-02 -4.5000000e-01
  endloop
 endfacet
 facet normal 0.0000000e+00 0.0000000e+00 -1.0000000e+00
  outer loop
   vertex 0.0000000e+00 0.0000000e+00 -5.7000000e-01
   vertex -1.0000000e-01 1.2246468e-17 -5.7000000e-01
   vertex -9.8078528e-02 1.9509032e-02 -5.7000000e-01
  endloop
 endfacet
 facet normal 0.0000000e+00 0.0000000e+00 1.0000000e+00
  outer loop
   vertex 0.0000000e+00 0.0000000e+00 -4.5000000e-01
   vertex -9.8078528e-02 1.9509032e-02 -4.5000000e-01
   vertex -1.0000000e-01 1.2246468e-17 -4.5000000e-01
  endloop
 endfacet
 facet normal -9.9518473e-01 -9.8017140e-02 0.0000000e+00
  outer loop
   vertex -1.0000000e-01 1.2246468e-17 -5.7000000e-01
   vertex -9.8078528e-02 -1.9509032e-02 -5.7000000e-01
   vertex -9.8078528e-02 -1.9509032e-02 -4.5000000e-01
  endloop
 endfacet
 facet normal -9.9518473e-01 -9.8017140e-02 0.0000000e+00
  outer loop
   vertex -1.0000000e-01 1.2246468e-17 -5.7000000e-01
   vertex -9.8078528e-02 -1.9509032e-02 -4.5000000e-01
   vertex -1.0000000e-01 1.2246468e-17 -4.5000000e-01
  endloop
 endfacet
 facet normal -0.0000000e+00 0.0000000e+00 -1.0000000e+00
  outer loop
   vertex 0.0000000e+00 0.0000000e+00 -5.7000000e-01
   vertex -9.8078528e-02 -1.9509032e-02 -5.7000000e-01
   vertex -1.0000000e-01 1.2246468e-17 -5.7000000e-01
  endloop
 endfacet
 facet normal 0.0000000e+00 0.0000000e+00 1.0000000e+00
  outer loop
   vertex 0.0000000e+00 0.0000000e+00 -4.5000000e-01
   vertex -1.0000000e-01 1.2246468e-17 -4.5000000e-01
   vertex -9.8078528e-02 -1.9509032e-02 -4.5000000e-01
  endloop
 endfacet
 facet normal -9.5694034e-01 -2.9028468e-01 0.0000000e+00
  outer loop
   vertex -9.8078528e-02 -1.9509032e-02 -5.7000000e-01
   vertex -9.2387953e-02 -3.8268343e-02 -5.7000000e-01
   vertex -9.2387953e-02 -3.8268343e-02 -4.5000000e-01
  endloop
 endfacet
 facet normal -9.5694034e-01 -2.9028468e-01 0.0000000e+00
  outer loop
   vertex -9.8078528e-02 -1.9509032e-02 -5.7000000e-01
   vertex -9.2387953e-02 -3.8268343e-02 -4.5000000e-01
   vertex -9.8078528e-02 -1.9509032e-02 -4.5000000e-01
  endloop
 endfacet
 facet normal 0.0000000e+00 0.0000000e+00 -1.0000000e+00
  outer loop
   vertex 0.0000000e+00 0.0000000e+00 -5.7000000e-01
   vertex -9.2387953e-02 -3.8268343e-02 -5.7000000e-01
   vertex -9.8078528e-02 -1.9509032e-02 -5.7000000e-01
  endloop
 endfacet
 facet normal 0.0000000e+00 0.0000000e+00 1.0000000e+00
  outer loop
   vertex 0.0000000e+00 0.0000000e+00 -4.5000000e-01
   vertex -9.8078528e-02 -1.9509032e-02 -4.5000000e-01
   vertex -9.2387953e-02 -3.8268343e-02 -4.5000000e-01
  endloop
 endfacet
 facet normal -8.8192126e-01 -4.7139674e-01 0.0000000e+00
  outer loop
   vertex -9.2387953e-02 -3.8268343e-02 -5.7000000e-01
   vertex -8.3146961e-02 -5.5557023e-02 -5.7000000e-01
   vertex -8.3146961e-02 -5.5557023e-02 -4.5000000e-01
  endloop
 endfacet
 facet normal -8.8192126e-01 -4.7139674e-01 0.0000000e+00
  outer loop
   vertex -9.2387953e-02 -3.8268343e-02 -5.7000000e-01
   vertex -8.3146961e-02 -5.5557023e-02 -4.5000000e-01
   vertex -9.2387953e-02 -3.8268343e-02 -4.5000000e-01
  endloop
 endfacet
 facet normal 0.0000000e+00 0.0000000e+00 -1.0000000e+00
  outer loop
   vertex 0.0000000e+00 0.0000000e+00 -5.7000000e-01
   vertex -8.3146961e-02 -5.5557023e-02 -5.7000000e-01
   vertex -9.2387953e-02 -3.8268343e-02 -5.7000000e-01
  endloop
 endfacet
 facet normal 0.0000000e+00 0.0000000e+00 1.0000000e+00
  outer loop
   vertex 0.0000000e+00 0.0000000e+00 -4.5000000e-01
   vertex -9.2387953e-02 -3.8268343e-02 -4.5000000e-01
   vertex -8.3146961e-02 -5.5557023e-02 -4.5000000e-01
  endloop
 endfacet
 facet normal -7.7301045e-01 -6.3439328e-01 0.0000000e+00
  outer loop
   vertex -8.3146961e-02 -5.5557023e-02 -5.7000000e-01
   vertex -7.0710678e-02 -7.0710678e-02 -5.7000000e-01
   vertex -7.0710678e-02 -7.0710678e-02 -4.5000000e-01
  endloop
 endfacet
 facet normal -7.7301045e-01 -6.3439328e-01 0.0000000e+00
  outer loop
   vertex -8.3146961e-02 -5.5557023e-02 -5.7000000e-01
   vertex -7.0710678e-02 -7.0710678e-02 -4.5000000e-01
   vertex -8.3146961e-02 -5.5557023e-02 -4.5000000e-01
  endloop
 endfacet
 facet normal 0.0000000e+00 0.0000000e+00 -1.0000000e+00
  outer loop
   vertex 0.0000000e+00 0.0000000e+00 -5.7000000e-01
   vertex -7.0710678e-02 -7.0710678e-02 -5.7000000e-01
   vertex -8.3146961e-02 -5.5557023e-02 -5.7000000e-01
  endloop
 endfacet
 facet normal 0.0000000e+00 0.0000000e+00 1.0000000e+00
  outer loop
   vertex 0.0000000e+00 0.0000000e+00 -4.5000000e-01
   vertex -8.3146961e-02 -5.5557023e-02 -4.5000000e-01
   vertex -7.0710678e-02 -7.0710678e-02 -4.5000000e-01
  endloop
 endfacet
 facet normal -6.3439328e-01 -7.7301045e-01 0.0000000e+00
  outer loop
   vertex -7.0710678e-02 -7.0710678e-02 -5.7000000e-01
   vertex -5.5557023e-02 -8.3146961e-02 -5.7000000e-01
   vertex -5.5557023e-02 -8.3146961e-02 -4.5000000e-01
  endloop
 endfacet
 facet normal -6.3439328e-01 -7.7301045e-01 0.0000000e+00
  outer loop
   vertex -7.0710678e-02 -7.0710678e-02 -5.7000000e-01
   vertex -5.5557023e-02 -8.3146961e-02 -4.5000000e-01
   vertex -7.0710678e-02 -7.0710678e-02 -4.5000000e-01
  endloop
 endfacet
 facet normal 0.0000000e+00 0.0000000e+00 -1.0000000e+00
  outer loop
   vertex 0.0000000e+00 0.0000000e+00 -5.7000000e-01
   vertex -5.5557023e-02 -8.3146961e-02 -5.7000000e-01
   vertex -7.0710678e-02 -7.0710678e-02 -5.7000000e-01
  endloop
 endfacet
 facet normal 0.0000000e+00 0.0000000e+00 1.0000000e+00
  outer loop
   vertex 0.0000000e+00 0.0000000e+00 -4.5000000e-01
   vertex -7.0710678e-02 -7.0710678e-02 -4.5000000e-01
   vertex -5.5557023e-02 -8.3146961e-02 -4.5000000e-01
  endloop
 endfacet
 facet normal -4.7139674e-01 -8.8192126e-01 0.0000000e+00
  outer loop
   vertex -5.5557023e-02 -8.3146961e-02 -5.7000000e-01
   vertex -3.8268343e-02 -9.2387953e-02 -5.7000000e-01
   vertex -3.8268343e-02 -9.2387953e-02 -4.5000000e-01
  endloop
 endfacet
 facet normal -4.7139674e-01 -8.8192126e-01 0.0000000e+00
  outer loop
   vertex -5.5557023e-02 -8.3146961e-02 -5.7000000e-01
   vertex -3.8268343e-02 -9.2387953e-02 -4.5000000e-01
   vertex -5.5557023e-02 -8.3146961e-02 -4.5000000e-01
  endloop
 endfacet
 facet normal 0.0000000e+00 0.0000000e+00 -1.0000000e+00
  outer loop
   vertex 0.0000000e+00 0.0000000e+00 -5.7000000e-01
   vertex -3.8268343e-02 -9.2387953e-02 -5.7000000e-01
   vertex -5.5557023e-02 -8.3146961e-02 -5.7000000e-01
  endloop
 endfacet
 facet normal 0.0000000e+00 0.0000000e+00 1.0000000e+00
  outer loop
   vertex 0.0000000e+00 0.0000000e+00 -4.5000000e-01
   vertex -5.5557023e-02 -8.3146961e-02 -4.5000000e-01
   vertex -3.8268343e-02 -9.2387953e-02 -4.5000000e-01
  endloop
 endfacet
 facet normal -2.9028468e-01 -9.5694034e-01 0.0000000e+00
  outer loop
   vertex -3.8268343e-02 -9.2387953e-02 -5.7000000e-01
   vertex -1.9509032e-02 -9.8078528e-02 -5.7000000e-01
   vertex -1.9509032e-02 -9.8078528e-02 -4.5000000e-01
  endloop
 endfacet
 facet normal -2.9028468e-01 -9.5694034e-01 0.0000000e+00
  outer loop
   vertex -3.8268343e-02 -9.2387953e-02 -5.7000000e-01
   vertex -1.9509032e-02 -9.8078528e-02 -4.5000000e-01
   vertex -3.8268343e-02 -9.2387953e-02 -4.5000000e-01
  endloop
 endfacet
 facet normal 0.0000000e+00 0.0000000e+00 -1.0000000e+00
  outer loop
   vertex 0.0000000e+00 0.0000000e+00 -5.7000000e-01
   vertex -1.9509032e-02 -9.8078528e-02 -5.7000000e-01
   vertex -3.8268343e-02 -9.2387953e-02 -5.7000000e-01
  endloop
 endfacet
 facet normal 0.0000000e+00 0.0000000e+00 1.0000000e+00
  outer loop
   vertex 0.0000000e+00 0.0000000e+00 -4.5000000e-01
   vertex -3.8268343e-02 -9.2387953e-02 -4.5000000e-01
   vertex -1.9509032e-02 -9.8078528e-02 -4.5000000e-01
  endloop
 endfacet
 facet normal -9.8017140e-02 -9.9518473e-01 0.0000000e+00
  outer loop
   vertex -1.9509032e-02 -9.8078528e-02 -5.7000000e-01
   vertex -1.8369702e-17 -1.0000000e-01 -5.7000000e-01
   vertex -1.8369702e-17 -1.0000000e-01 -4.5000000e-01
  endloop
 endfacet
 facet normal -9.8017140e-02 -9.9518473e-01 0.0000000e+00
  outer loop
   vertex -1.9509032e-02 -9.8078528e-02 -5.7000000e-01
   vertex -1.8369702e-17 -1.0000000e-01 -4.5000000e-01
   vertex -1.9509032e-02 -9.8078528e-02 -4.5000000e-01
  endloop
 endfacet
 facet normal 0.0000000e+00 0.0000000e+00 -1.0000000e+00
  outer loop
   vertex 0.0000000e+00 0.0000000e+00 -5.7000000e-01
   vertex -1.8369702e-17 -1.0000000e-01 -5.7000000e-01
   vertex -1.9509032e-02 -9.8078528e-02 -5.7000000e-01
  endloop
 endfacet
 facet normal 0.0000000e+00 0.0000000e+00 1.0000000e+00
  outer loop
   vertex 0.0000000e+00 0.0000000e+00 -4.5000000e-01
   vertex -1.9509032e-02 -9.8078528e-02 -4.5000000e-01
   vertex -1.8369702e-17 -1.0000000e-01 -4.5000000e-01
  endloop
 endfacet
 facet normal 9.8017140e-02 -9.9518473e-01 0.0000000e+00
  outer loop
   vertex -1.8369702e-17 -1.0000000e-01 -5.7000000e-01
   vertex 1.9509032e-02 -9.8078528e-02 -5.7000000e-01
   vertex 1.9509032e-02 -9.8078528e-02 -4.5000000e-01
  endloop
 endfacet
 facet normal 9.8017140e-02 -9.9518473e-01 0.0000000e+00
  outer loop
   vertex -1.8369702e-17 -1.0000000e-01 -5.7000000e-01
   vertex 1.9509032e-02 -9.8078528e-02 -4.5000000e-01
   vertex -1.8369702e-17 -1.0000000e-01 -4.5000000e-01
  endloop
 endfacet
 facet normal 0.0000000e+00 -0.0000000e+00 -1.0000000e+00
  outer loop
   vertex 0.0000000e+00 0.0000000e+00 -5.7000000e-01
   vertex 1.9509032e-02 -9.8078528e-02 -5.7000000e-01
   vertex -1.8369702e-17 -1.0000000e-01 -5.7000000e-01
  endloop
 endfacet
 facet normal 0.0000000e+00 0.0000000e+00 1.0000000e+00
  outer loop
   vertex 0.0000000e+00 0.0000000e+00 -4.5000000e-01
   vertex -1.8369702e-17 -1.0000000e-01 -4.5000000e-01
   vertex 1.9509032e-02 -9.8078528e-02 -4.5000000e-01
  endloop
 endfacet
 facet normal 2.9028468e-01 -9.5694034e-01 0.0000000e+00
  outer loop
   vertex 1.9509032e-02 -9.8078528e-02 -5.7000000e-01
   vertex 3.8268343e-02 -9.2387953e-02 -5.7000000e-01
   vertex 3.8268343e-02 -9.2387953e-02 -4.5000000e-01
  endloop
 endfacet
 facet normal 2.9028468e-01 -9.5694034e-01 0.0000000e+00
  outer loop
   vertex 1.9509032e-02 -9.8078528e-02 -5.7000000e-01
   vertex 3.8268343e-02 -9.2387953e-02 -4.5000000e-01
   vertex 1.9509032e-02 -9.8078528e-02 -4.5000000e-01
  endloop
 endfacet
 facet normal 0.0000000e+00 0.0000000e+00 -1.0000000e+00
  outer loop
   vertex 0.0000000e+00 0.0000000e+00 -5.7000000e-01
   vertex 3.8268343e-02 -9.2387953e-02 -5.7000000e-01
   vertex 1.9509032e-02 -9.8078528e-02 -5.7000000e-01
  endloop
 endfacet
 facet normal 0.0000000e+00 0.0000000e+00 1.0000000e+00
  outer loop
   vertex 0.0000000e+00 0.0000000e+00 -4.5000000e-01
   vertex 1.9509032e-02 -9.8078528e-02 -4.5000000e-01
   vertex 3.8268343e-02 -9.2387953e-02 -4.5000000e-01
  endloop
 endfacet
 facet normal 4.7139674e-01 -8.8192126e-01 0.0000000e+00
  outer loop
   vertex 3.8268343e-02 -9.2387953e-02 -5.7000000e-01
   vertex 5.5557023e-02 -8.3146961e-02 -5.7000000e-01
   vertex 5.5557023e-02 -8.3146961e-02 -4.5000000e-01
  endloop
 endfacet
 facet normal 4.7139674e-01 -8.8192126e-01 0.0000000e+00
  outer loop
   vertex 3.8268343e-02 -9.2387953e-02 -5.7000000e-01
   vertex 5.5557023e-02 -8.3146961e-02 -4.5000000e-01
   vertex 3.8268343e-02 -9.2387953e-02 -4.5000000e-01
  endloop
 endfacet
 facet normal 0.0000000e+00 0.0000000e+00 -1.0000000e+00
  outer loop
   vertex 0.0000000e+00 0.0000000e+00 -5.7000000e-01
   vertex 5.5557023e-02 -8.3146961e-02 -5.7000000e-01
   vertex 3.8268343e-02 -9.2387953e-02 -5.7000000e-01
  endloop
 endfacet
 facet normal 0.0000000e+00 0.0000000e+00 1.0000000e+00
  outer loop
   vertex 0.0000000e+00 0.0000000e+00 -4.5000000e-01
   vertex 3.8268343e-02 -9.2387953e-02 -4.5000000e-01
   vertex 5.5557023e-02 -8.3146961e-02 -4.5000000e-01
  endloop
 endfacet
 facet normal 6.3439328e-01 -7.7301045e-01 0.0000000e+00
  outer loop
   vertex 5.5557023e-02 -8.3146961e-02 -5.7000000e-01
   vertex 7.0710678e-02 -7.0710678e-02 -5.7000000e-01
   vertex 7.0710678e-02 -7.0710678e-02 -4.5000000e-01
  endloop
 endfacet
 facet normal 6.3439328e-01 -7.7301045e-01 0.0000000e+00
  outer loop
   vertex 5.5557023e-02 -8.3146961e-02 -5.7000000e-01
   vertex 7.0710678e-02 -7.0710678e-02 -4.5000000e-01
   vertex 5.5557023e-02 -8.3146961e-02 -4.5000000e-01
  endloop
 endfacet
 facet normal 0.0000000e+00 0.0000000e+00 -1.0000000e+00
  outer loop
   vertex 0.0000000e+00 0.0000000e+00 -5.7000000e-01
   vertex 7.0710678e-02 -7.0710678e-02 -5.7000000e-01
   vertex 5.5557023e-02 -8.3146961e-02 -5.7000000e-01
  endloop
 endfacet
 facet normal 0.0000000e+00 0.0000000e+00 1.0000000e+00
  outer loop
   vertex 0.0000000e+00 0.0000000e+00 -4.5000000e-01
   vertex 5.5557023e-02 -8.3146961e-02 -4.5000000e-01
   vertex 7.0710678e-02 -7.0710678e-02 -4.5000000e-01
  endloop
 endfacet
 facet normal 7.7301045e-01 -6.3439328e-01 0.0000000e+00
  outer loop
   vertex 7.0710678e-02 -7.0710678e-02 -5.7000000e-01
   vertex 8.3146961e-02 -5.5557023e-02 -5.7000000e-01
   vertex 8.3146961e-02 -5.5557023e-02 -4.5000000e-01
  endloop
 endfacet
 facet normal 7.7301045e-01 -6.3439328e-01 0.0000000e+00
  outer loop
   vertex 7.0710678e-02 -7.0710678e-02 -5.7000000e-01
   vertex 8.3146961e-02 -5.5557023e-02 -4.5000000e-01
   vertex 7.0710678e-02 -7.0710678e-02 -4.5000000e-01
  endloop
 endfacet
 facet normal 0.0000000e+00 0.0000000e+00 -1.0000000e+00
  outer loop
   vertex 0.0000000e+00 0.0000000e+00 -5.7000000e-01
   vertex 8.3146961e-02 -5.5557023e-02 -5.7000000e-01
   vertex 7.0710678e-02 -7.0710678e-02 -5.7000000e-01
  endloop
 endfacet
 facet normal 0.0000000e+00 0.0000000e+00 1.0000000e+00
  outer loop
   vertex 0.0000000e+00 0.0000000e+00 -4.5000000e-01
   vertex 7.0710678e-02 -7.0710678e-02 -4.5000000e-01
   vertex 8.3146961e-02 -5.5557023e-02 -4.5000000e-01
  endloop
 endfacet
 facet normal 8.8192126e-01 -4.7139674e-01 0.0000000e+00
  outer loop
   vertex 8.3146961e-02 -5.5557023e-02 -5.7000000e-01
   vertex 9.2387953e-02 -3.8268343e-02 -5.7000000e-01
   vertex 9.2387953e-02 -3.8268343e-02 -4.5000000e-01
  endloop
 endfacet
 facet normal 8.8192126e-01 -4.7139674e-01 0.0000000e+00
  outer loop
   vertex 8.3146961e-02 -5.5557023e-02 -5.7000000e-01
   vertex 9.2387953e-02 -3.8268343e-02 -4.5000000e-01
   vertex 8.3146961e-02 -5.5557023e-02 -4.5000000e-01
  endloop
 endfacet
 facet normal 0.0000000e+00 0.0000000e+00 -1.0000000e+00
  outer loop
   vertex 0.0000000e+00 0.0000000e+00 -5.7000000e-01
   vertex 9.2387953e-02 -3.8268343e-02 -5.7000000e-01
   vertex 8.3146961e-02 -5.5557023e-02 -5.7000000e-01
  endloop
 endfacet
 facet normal 0.0000000e+00 0.0000000e+00 1.0000000e+00
  outer loop
   vertex 0.0000000e+00 0.0000000e+00 -4.5000000e-01
   vertex 8.3146961e-02 -5.5557023e-02 -4.5000000e-01
   vertex 9.2387953e-02 -3.8268343e-02 -4.5000000e-01
  endloop
 endfacet
 facet normal 9.5694034e-01 -2.9028468e-01 0.0000000e+00
  outer loop
   vertex 9.2387953e-02 -3.8268343e-02 -5.7000000e-01
   vertex 9.8078528e-02 -1.9509032e-02 -5.7000000e-01
   vertex 9.8078528e-02 -1.9509032e-02 -4.5000000e-01
  endloop
 endfacet
 facet normal 9.5694034e-01 -2.9028468e-01 0.0000000e+00
  outer loop
   vertex 9.2387953e-02 -3.8268343e-02 -5.7000000e-01
   vertex 9.8078528e-02 -1.9509032e-02 -4.5000000e-01
   vertex 9.2387953e-02 -3.8268343e-02 -4.5000000e-01
  endloop
 endfacet
 facet normal 0.0000000e+00 0.0000000e+00 -1.0000000e+00
  outer loop
   vertex 0.0000000e+00 0.0000000e+00 -5.7000000e-01
   vertex 9.8078528e-02 -1.9509032e-02 -5.7000000e-01
   vertex 9.2387953e-02 -3.8268343e-02 -5.7000000e-01
  endloop
 endfacet
 facet normal 0.0000000e+00 0.0000000e+00 1.0000000e+00
  outer loop
   vertex 0.0000000e+00 0.0000000e+00 -4.5000000e-01
   vertex 9.2387953e-02 -3.8268343e-02 -4.5000000e-01
   vertex 9.8078528e-02 -1.9509032e-02 -4.5000000e-01
  endloop
 endfacet
 facet normal 9.9518473e-01 -9.8017140e-02 0.0000000e+00
  outer loop
   vertex 9.8078528e-02 -1.9509032e-02 -5.7000000e-01
   vertex 1.0000000e-01 -2.4492936e-17 -5.7000000e-01
   vertex 1.0000000e-01 -2.4492936e-17 -4.5000000e-01
  endloop
 endfacet
 facet normal 9.9518473e-01 -9.8017140e-02 0.0000000e+00
  outer loop
   vertex 9.8078528e-02 -1.9509032e-02 -5.7000000e-01
   vertex 1.0000000e-01 -2.4492936e-17 -4.5000000e-01
   vertex 9.8078528e-02 -1.9509032e-02 -4.5000000e-01
  endloop
 endfacet
 facet normal 0.0000000e+00 0.0000000e+00 -1.0000000e+00
  outer loop
   vertex 0.0000000e+00 0.0000000e+00 -5.7000000e-01
   vertex 1.0000000e-01 -2.4492936e-17 -5.7000000e-01
   vertex 9.8078528e-02 -1.9509032e-02 -5.7000000e-01
  endloop
 endfacet
 facet normal 0.0000000e+00 0.0000000e+00 1.0000000e+00
  outer loop
   vertex 0.0000000e+00 0.0000000e+00 -4.5000000e-01
   vertex 9.8078528e-02 -1.9509032e-02 -4.5000000e-01
   vertex 1.0000000e-01 -2.4492936e-17 -4.5000000e-01
  endloop
 endfacet
endsolid earth_observation_spacecraft
